<?xml version="1.0" standalone="no"?>
<!DOCTYPE svg PUBLIC "-//W3C//DTD SVG 20010904//EN"
 "http://www.w3.org/TR/2001/REC-SVG-20010904/DTD/svg10.dtd">
<svg version="1.0" xmlns="http://www.w3.org/2000/svg"
 width="260.000000pt" height="260.000000pt" viewBox="0 0 260.000000 260.000000"
 preserveAspectRatio="xMidYMid meet">
<metadata>
Created by potrace 1.14, written by Peter Selinger 2001-2017
</metadata>
<g transform="translate(0.000000,260.000000) scale(0.100000,-0.100000)"
fill="#000000" stroke="none">
<path d="M1055 2556 c-135 -28 -139 -29 -248 -78 -285 -128 -494 -318 -635
-578 -42 -77 -78 -161 -93 -215 -4 -16 -13 -48 -19 -70 -62 -231 -49 -525 33
-745 93 -249 240 -446 452 -605 244 -184 604 -282 899 -245 212 26 470 129
636 253 161 121 305 298 389 478 61 132 72 167 107 349 46 237 0 530 -122 772
-108 216 -300 418 -514 540 -265 152 -589 205 -885 144z m428 -637 c91 -25
176 -78 237 -146 54 -61 100 -159 100 -212 l0 -41 -124 0 -123 0 -34 57 c-55
94 -129 129 -251 121 -81 -6 -145 -40 -179 -95 -23 -37 -24 -43 -24 -274 l0
-235 28 -42 c31 -47 77 -74 154 -91 105 -22 218 27 269 116 15 26 33 51 38 55
17 12 240 7 248 -5 22 -35 -45 -179 -120 -256 -99 -100 -229 -151 -392 -151
-213 0 -387 96 -462 257 -39 83 -48 170 -42 434 l4 191 36 76 c45 93 108 158
194 200 93 46 151 59 264 61 73 1 120 -5 179 -20z"/>
</g>
</svg>
